<svg width="209" height="37" viewBox="0 0 209 37" fill="none" xmlns="http://www.w3.org/2000/svg">
<path d="M38.5859 21.4102C38.1953 20.082 37.1211 19.2617 35.5781 19.2617C33.3906 19.2617 31.9062 20.9414 31.9062 23.9102C31.9062 26.8984 33.3516 28.5977 35.5977 28.5977C37.6191 28.5977 38.8203 27.4551 38.8594 25.668H35.793V23.4609H41.6914V25.2188C41.6914 28.9297 39.1523 31.1953 35.5781 31.1953C31.6133 31.1953 28.918 28.4219 28.918 23.9492C28.918 19.3594 31.7891 16.6641 35.5195 16.6641C38.7031 16.6641 41.1641 18.6172 41.5547 21.4102H38.5859ZM44.4453 31V20.3945H47.3359V31H44.4453ZM45.8906 19.0078C45.0117 19.0078 44.3086 18.3438 44.3086 17.543C44.3086 16.7227 45.0117 16.0586 45.8906 16.0586C46.75 16.0586 47.4531 16.7227 47.4531 17.543C47.4531 18.3438 46.75 19.0078 45.8906 19.0078ZM55.168 20.3945V22.5625H53.1758V27.7383C53.1758 28.5781 53.5859 28.793 54.1719 28.8125C54.4648 28.8125 54.9727 28.793 55.3242 28.7539V31.0391C55.0117 31.0977 54.5039 31.1367 53.7812 31.1367C51.6914 31.1367 50.2656 30.1992 50.2852 28.1484V22.5625H48.8203V20.3945H50.2852V17.8555H53.1758V20.3945H55.168ZM57.2773 31V16.8594H60.207V22.7188H66.3398V16.8594H69.2891V31H66.3398V25.1406H60.207V31H57.2773ZM78.4102 26.4883V20.3945H81.3008V31H78.5273V29.0859H78.4102C77.9219 30.3164 76.7891 31.1367 75.1875 31.1367C73.0586 31.1367 71.6133 29.6328 71.6133 27.1523V20.3945H74.5039V26.6445C74.5039 27.8945 75.2266 28.6953 76.3594 28.6953C77.4141 28.6953 78.4102 27.9336 78.4102 26.4883ZM83.6055 31V16.8594H86.4961V22.1719H86.5742C86.9844 21.3125 87.8242 20.2578 89.6016 20.2578C91.9453 20.2578 93.918 22.0742 93.918 25.707C93.918 29.2422 92.0234 31.1758 89.6016 31.1758C87.8633 31.1758 86.9844 30.1797 86.5742 29.3008H86.457V31H83.6055ZM86.4375 25.6875C86.4375 27.6016 87.2578 28.8711 88.6836 28.8711C90.168 28.8711 90.9492 27.5625 90.9492 25.6875C90.9492 23.832 90.168 22.5625 88.6836 22.5625C87.2383 22.5625 86.4375 23.7734 86.4375 25.6875Z" fill="black"/>
<g filter="url(#filter0_d_618_17128)">
<path d="M163.401 19.2786C163.489 20.5837 165.132 22.0119 166.445 21.9246C167.758 21.8373 167.768 20.2991 167.68 18.994C167.592 17.6888 167.376 16.1657 166.063 16.2531C164.75 16.3404 163.313 17.9735 163.401 19.2786Z" fill="#FFD86E"/>
<path d="M181.705 24.002C181.705 25.0251 181.524 25.963 181.161 26.8156C180.818 27.6493 180.313 28.3693 179.646 28.9756C178.979 29.563 178.169 30.0177 177.216 30.3398C176.263 30.662 175.186 30.823 173.986 30.823C172.785 30.823 171.708 30.662 170.755 30.3398C169.802 30.0177 168.992 29.563 168.325 28.9756C167.658 28.3693 167.143 27.6493 166.781 26.8156C166.438 25.963 166.266 25.0251 166.266 24.002V13.1451C166.476 13.1072 166.81 13.0598 167.267 13.003C167.725 12.9272 168.163 12.8893 168.582 12.8893C169.021 12.8893 169.402 12.9272 169.726 13.003C170.069 13.0598 170.355 13.1735 170.583 13.3441C170.812 13.5146 170.984 13.7514 171.098 14.0546C171.212 14.3577 171.27 14.7556 171.27 15.2483V23.9167C171.27 24.8262 171.517 25.5367 172.013 26.0483C172.527 26.5598 173.185 26.8156 173.986 26.8156C174.805 26.8156 175.463 26.5598 175.958 26.0483C176.454 25.5367 176.702 24.8262 176.702 23.9167V13.1451C176.911 13.1072 177.245 13.0598 177.702 13.003C178.16 12.9272 178.502 12.8827 179.017 12.8893C179.466 12.8951 179.837 12.9272 180.161 13.003C180.504 13.0598 180.79 13.1735 181.018 13.3441C181.247 13.5146 181.419 13.7514 181.533 14.0546C181.647 14.3577 181.705 14.7556 181.705 15.2483V24.002Z" fill="#FFD86E"/>
<path d="M157.55 26.1334C157.303 26.3418 156.979 26.5123 156.578 26.6449C156.197 26.7586 155.749 26.8155 155.235 26.8155C154.549 26.8155 153.977 26.7302 153.519 26.5597C153.081 26.3891 152.795 26.0955 152.662 25.6786C152.128 24.0113 151.69 22.666 151.347 21.6428C151.003 20.6007 150.737 19.6913 150.546 18.9144H150.403C150.346 20.0323 150.298 21.0555 150.26 21.9839C150.241 22.8934 150.222 23.7839 150.203 24.6555C150.203 25.527 150.184 26.4081 150.146 27.2986C150.127 28.1891 150.089 29.1744 150.031 30.2544C149.784 30.3491 149.46 30.4249 149.059 30.4818C148.659 30.5576 148.259 30.5955 147.859 30.5955C147.02 30.5955 146.363 30.4628 145.886 30.1976C145.429 29.9323 145.104 29.1744 145.104 28.4733C145.104 28.4733 146.522 27.8398 147.01 27.0523C147.412 26.4029 147.486 25.9203 147.486 25.1576C147.486 24.3948 147.408 23.9151 147.01 23.2628C146.621 22.6243 145.58 21.9839 145.58 21.9839L146.029 14.2534C146.181 14.007 146.515 13.7418 147.03 13.4576C147.544 13.1734 148.268 13.0312 149.202 13.0312C150.213 13.0312 151.003 13.1923 151.575 13.5144C152.147 13.8176 152.566 14.3197 152.833 15.0207C153.005 15.4755 153.186 15.9965 153.376 16.5839C153.586 17.1712 153.786 17.7776 153.977 18.4028C154.186 19.0281 154.387 19.6534 154.577 20.2786C154.768 20.8849 154.939 21.4344 155.092 21.927H155.235C155.692 20.3355 156.15 18.8007 156.607 17.3228C157.064 15.826 157.484 14.5755 157.865 13.5712C158.151 13.4197 158.513 13.2965 158.951 13.2018C159.409 13.0881 159.914 13.0312 160.466 13.0312C161.4 13.0312 162.163 13.1734 162.754 13.4576C163.344 13.7228 163.688 14.1112 163.783 14.6228C163.859 15.0018 164.012 16.3849 164.012 16.3849C164.012 16.3849 163.09 16.9974 162.734 17.5786C162.335 18.2299 162.257 18.7106 162.257 19.4733C162.257 20.2361 162.24 20.7847 162.734 21.3681C163.24 21.9654 164.583 22.1544 164.583 22.1544C164.583 22.1544 164.764 24.3144 164.841 25.3376C164.936 26.3418 165.012 27.2702 165.069 28.1228C165.127 28.9565 165.165 29.6007 165.184 30.0555C164.86 30.2449 164.517 30.3776 164.154 30.4534C163.811 30.5481 163.364 30.5955 162.811 30.5955C162.087 30.5955 161.477 30.4723 160.981 30.226C160.486 29.9797 160.219 29.4965 160.181 28.7765C160.066 26.7113 159.99 24.8544 159.952 23.206C159.933 21.5576 159.895 20.1744 159.838 19.0565H159.695C159.504 19.7955 159.228 20.7239 158.865 21.8418C158.503 22.9597 158.065 24.3902 157.55 26.1334Z" fill="#CFD1CC"/>
<path d="M146.533 25.1575C146.533 26.4656 144.99 27.9996 143.674 27.9996C142.359 27.9996 142.245 26.4656 142.245 25.1575C142.245 23.8495 142.359 22.3154 143.674 22.3154C144.99 22.3154 146.533 23.8495 146.533 25.1575Z" fill="#002F6C"/>
<path d="M136.632 23.519C135.793 23.2347 135.031 22.9505 134.345 22.6663C133.659 22.3632 133.068 22.0032 132.572 21.5863C132.077 21.1695 131.686 20.6768 131.4 20.1084C131.133 19.5211 131 18.8105 131 17.9768C131 16.3663 131.619 15.0779 132.858 14.1116C134.116 13.1453 135.87 12.6621 138.119 12.6621C138.938 12.6621 139.701 12.719 140.406 12.8326C141.111 12.9463 141.711 13.1263 142.207 13.3726C142.722 13.6 143.122 13.9032 143.408 14.2821C143.694 14.6421 143.837 15.0684 143.837 15.5611C143.837 16.0537 143.722 16.48 143.493 16.84C143.265 17.1811 142.988 17.4747 142.664 17.7211C142.245 17.4558 141.683 17.2284 140.978 17.039C140.272 16.8305 139.5 16.7263 138.662 16.7263C137.804 16.7263 137.175 16.8495 136.775 17.0958C136.375 17.3232 136.175 17.6168 136.175 17.9768C136.175 18.2611 136.299 18.4979 136.546 18.6874C136.794 18.8579 137.166 19.019 137.661 19.1705L139.176 19.6537C140.968 20.2221 142.34 20.9516 143.293 21.8421C144.265 22.7137 144.751 23.9074 144.751 25.4232C144.751 27.0337 144.113 28.3411 142.836 29.3453C141.559 30.3305 139.682 30.8232 137.204 30.8232C136.327 30.8232 135.508 30.7474 134.745 30.5958C134.002 30.4632 133.344 30.2642 132.773 29.999C132.22 29.7147 131.781 29.3737 131.457 28.9758C131.152 28.559 131 28.0853 131 27.5547C131 27.0053 131.162 26.5411 131.486 26.1621C131.81 25.7642 132.163 25.4611 132.544 25.2526C133.077 25.6695 133.725 26.0295 134.488 26.3326C135.269 26.6358 136.117 26.7874 137.032 26.7874C137.966 26.7874 138.624 26.6453 139.005 26.3611C139.386 26.0768 139.577 25.7453 139.577 25.3663C139.577 24.9874 139.424 24.7032 139.119 24.5137C138.814 24.3053 138.386 24.1063 137.833 23.9168L136.632 23.519Z" fill="#002F6C"/>
</g>
<path d="M187.479 23.0857C186.709 23.0857 186.119 23.3207 185.709 23.7907C185.299 24.2607 185.094 24.9257 185.094 25.7857C185.094 26.6557 185.319 27.3257 185.769 27.7957C186.229 28.2657 186.844 28.5007 187.614 28.5007C188.024 28.5007 188.369 28.4457 188.649 28.3357C188.939 28.2257 189.214 28.1007 189.474 27.9607C189.644 28.1007 189.774 28.2707 189.864 28.4707C189.964 28.6607 190.014 28.8857 190.014 29.1457C190.014 29.5557 189.784 29.9057 189.324 30.1957C188.874 30.4757 188.184 30.6157 187.254 30.6157C186.584 30.6157 185.954 30.5207 185.364 30.3307C184.774 30.1407 184.259 29.8507 183.819 29.4607C183.379 29.0607 183.029 28.5607 182.769 27.9607C182.519 27.3507 182.394 26.6257 182.394 25.7857C182.394 25.0057 182.514 24.3207 182.754 23.7307C183.004 23.1307 183.339 22.6257 183.759 22.2157C184.189 21.8057 184.689 21.4957 185.259 21.2857C185.829 21.0757 186.439 20.9707 187.089 20.9707C188.009 20.9707 188.719 21.1207 189.219 21.4207C189.729 21.7207 189.984 22.1057 189.984 22.5757C189.984 22.8357 189.919 23.0607 189.789 23.2507C189.659 23.4407 189.509 23.5907 189.339 23.7007C189.079 23.5307 188.799 23.3857 188.499 23.2657C188.209 23.1457 187.869 23.0857 187.479 23.0857ZM192.763 30.3307C192.653 30.3507 192.488 30.3757 192.268 30.4057C192.058 30.4457 191.843 30.4657 191.623 30.4657C191.403 30.4657 191.203 30.4507 191.023 30.4207C190.853 30.3907 190.708 30.3307 190.588 30.2407C190.468 30.1507 190.373 30.0307 190.303 29.8807C190.243 29.7207 190.213 29.5157 190.213 29.2657V20.5657C190.323 20.5457 190.483 20.5207 190.693 20.4907C190.913 20.4507 191.133 20.4307 191.353 20.4307C191.573 20.4307 191.768 20.4457 191.938 20.4757C192.118 20.5057 192.268 20.5657 192.388 20.6557C192.508 20.7457 192.598 20.8707 192.658 21.0307C192.728 21.1807 192.763 21.3807 192.763 21.6307V30.3307ZM193.322 23.1607C193.422 23.1307 193.577 23.1007 193.787 23.0707C194.007 23.0407 194.232 23.0257 194.462 23.0257C194.682 23.0257 194.877 23.0407 195.047 23.0707C195.227 23.1007 195.377 23.1607 195.497 23.2507C195.617 23.3407 195.707 23.4657 195.767 23.6257C195.837 23.7757 195.872 23.9757 195.872 24.2257V27.4507C195.872 27.8607 195.972 28.1557 196.172 28.3357C196.372 28.5057 196.662 28.5907 197.042 28.5907C197.272 28.5907 197.457 28.5707 197.597 28.5307C197.747 28.4907 197.862 28.4507 197.942 28.4107V23.1607C198.042 23.1307 198.197 23.1007 198.407 23.0707C198.627 23.0407 198.852 23.0257 199.082 23.0257C199.302 23.0257 199.497 23.0407 199.667 23.0707C199.847 23.1007 199.997 23.1607 200.117 23.2507C200.237 23.3407 200.327 23.4657 200.387 23.6257C200.457 23.7757 200.492 23.9757 200.492 24.2257V28.7857C200.492 29.2857 200.282 29.6607 199.862 29.9107C199.512 30.1307 199.092 30.2957 198.602 30.4057C198.122 30.5257 197.597 30.5857 197.027 30.5857C196.487 30.5857 195.987 30.5257 195.527 30.4057C195.077 30.2857 194.687 30.1007 194.357 29.8507C194.027 29.6007 193.772 29.2807 193.592 28.8907C193.412 28.4907 193.322 28.0107 193.322 27.4507V23.1607ZM201.033 20.5807C201.133 20.5507 201.293 20.5207 201.513 20.4907C201.733 20.4507 201.958 20.4307 202.188 20.4307C202.408 20.4307 202.603 20.4457 202.773 20.4757C202.953 20.5057 203.103 20.5657 203.223 20.6557C203.343 20.7457 203.433 20.8707 203.493 21.0307C203.553 21.1807 203.583 21.3807 203.583 21.6307V23.1007C203.833 23.0007 204.068 22.9307 204.288 22.8907C204.518 22.8507 204.768 22.8307 205.038 22.8307C205.518 22.8307 205.973 22.9157 206.403 23.0857C206.833 23.2557 207.213 23.5057 207.543 23.8357C207.873 24.1557 208.133 24.5557 208.323 25.0357C208.513 25.5157 208.608 26.0707 208.608 26.7007C208.608 27.3507 208.508 27.9207 208.308 28.4107C208.118 28.8907 207.848 29.2907 207.498 29.6107C207.148 29.9307 206.718 30.1757 206.208 30.3457C205.708 30.5057 205.153 30.5857 204.543 30.5857C203.883 30.5857 203.323 30.5057 202.863 30.3457C202.403 30.1957 202.013 30.0057 201.693 29.7757C201.253 29.4657 201.033 29.0657 201.033 28.5757V20.5807ZM204.543 28.5757C205.003 28.5757 205.358 28.4207 205.608 28.1107C205.868 27.7907 205.998 27.3207 205.998 26.7007C205.998 26.0707 205.868 25.6007 205.608 25.2907C205.348 24.9807 204.998 24.8257 204.558 24.8257C204.358 24.8257 204.183 24.8457 204.033 24.8857C203.893 24.9257 203.738 24.9857 203.568 25.0657V28.3357C203.678 28.4057 203.808 28.4657 203.958 28.5157C204.118 28.5557 204.313 28.5757 204.543 28.5757Z" fill="black"/>
<g filter="url(#filter1_d_618_17128)">
<path d="M184.955 8.08568L184.229 7.90093L184.725 5.97808C184.791 5.72309 184.752 5.4526 184.617 5.2261C184.482 4.9996 184.262 4.83565 184.006 4.77032L182.071 4.27766L182.257 3.55659C182.339 3.23786 182.291 2.89974 182.122 2.61662C181.953 2.3335 181.679 2.12856 181.358 2.0469C181.037 1.96524 180.697 2.01353 180.412 2.18117C180.128 2.3488 179.922 2.62204 179.839 2.94077L179.654 3.66184L177.719 3.16918C177.463 3.10385 177.191 3.14249 176.963 3.2766C176.735 3.4107 176.57 3.62929 176.504 3.88428L176.034 5.71099L176.759 5.89574C177.484 6.08048 177.916 6.80514 177.73 7.52621C177.544 8.24728 176.815 8.67634 176.09 8.49159L175.365 8.30684L174.894 10.1336C174.828 10.3885 174.867 10.659 175.002 10.8855C175.137 11.112 175.357 11.276 175.613 11.3413L177.451 11.8093L177.637 11.0883C177.822 10.3672 178.551 9.93813 179.277 10.1229C180.002 10.3076 180.434 11.0323 180.248 11.7534L180.062 12.4744L181.899 12.9424C182.156 13.0078 182.428 12.9691 182.656 12.835C182.884 12.7009 183.049 12.4823 183.114 12.2274L183.61 10.3045L184.335 10.4892C184.656 10.5709 184.996 10.5226 185.281 10.355C185.566 10.1873 185.772 9.91411 185.854 9.59537C185.936 9.27664 185.887 8.93852 185.719 8.6554C185.55 8.37228 185.275 8.16734 184.955 8.08568Z" fill="#FFD86E"/>
</g>
<line x1="114" y1="13" x2="114" y2="33" stroke="black" stroke-width="2"/>
<path d="M12 14C10.6868 14 9.38642 14.2587 8.17317 14.7612C6.95991 15.2638 5.85752 16.0003 4.92893 16.9289C3.05357 18.8043 2 21.3478 2 24C2 28.42 4.87 32.17 8.84 33.5C9.34 33.58 9.5 33.27 9.5 33V31.31C6.73 31.91 6.14 29.97 6.14 29.97C5.68 28.81 5.03 28.5 5.03 28.5C4.12 27.88 5.1 27.9 5.1 27.9C6.1 27.97 6.63 28.93 6.63 28.93C7.5 30.45 8.97 30 9.54 29.76C9.63 29.11 9.89 28.67 10.17 28.42C7.95 28.17 5.62 27.31 5.62 23.5C5.62 22.39 6 21.5 6.65 20.79C6.55 20.54 6.2 19.5 6.75 18.15C6.75 18.15 7.59 17.88 9.5 19.17C10.29 18.95 11.15 18.84 12 18.84C12.85 18.84 13.71 18.95 14.5 19.17C16.41 17.88 17.25 18.15 17.25 18.15C17.8 19.5 17.45 20.54 17.35 20.79C18 21.5 18.38 22.39 18.38 23.5C18.38 27.32 16.04 28.16 13.81 28.41C14.17 28.72 14.5 29.33 14.5 30.26V33C14.5 33.27 14.66 33.59 15.17 33.5C19.14 32.16 22 28.42 22 24C22 22.6868 21.7413 21.3864 21.2388 20.1732C20.7362 18.9599 19.9997 17.8575 19.0711 16.9289C18.1425 16.0003 17.0401 15.2638 15.8268 14.7612C14.6136 14.2587 13.3132 14 12 14Z" fill="black"/>
<defs>
<filter id="filter0_d_618_17128" x="127" y="10.6621" width="58.7046" height="26.1611" filterUnits="userSpaceOnUse" color-interpolation-filters="sRGB">
<feFlood flood-opacity="0" result="BackgroundImageFix"/>
<feColorMatrix in="SourceAlpha" type="matrix" values="0 0 0 0 0 0 0 0 0 0 0 0 0 0 0 0 0 0 127 0" result="hardAlpha"/>
<feOffset dy="2"/>
<feGaussianBlur stdDeviation="2"/>
<feComposite in2="hardAlpha" operator="out"/>
<feColorMatrix type="matrix" values="0 0 0 0 0 0 0 0 0 0 0 0 0 0 0 0 0 0 0.25 0"/>
<feBlend mode="normal" in2="BackgroundImageFix" result="effect1_dropShadow_618_17128"/>
<feBlend mode="normal" in="SourceGraphic" in2="effect1_dropShadow_618_17128" result="shape"/>
</filter>
<filter id="filter1_d_618_17128" x="170.863" y="0.0078125" width="19.0303" height="18.9658" filterUnits="userSpaceOnUse" color-interpolation-filters="sRGB">
<feFlood flood-opacity="0" result="BackgroundImageFix"/>
<feColorMatrix in="SourceAlpha" type="matrix" values="0 0 0 0 0 0 0 0 0 0 0 0 0 0 0 0 0 0 127 0" result="hardAlpha"/>
<feOffset dy="2"/>
<feGaussianBlur stdDeviation="2"/>
<feComposite in2="hardAlpha" operator="out"/>
<feColorMatrix type="matrix" values="0 0 0 0 0 0 0 0 0 0 0 0 0 0 0 0 0 0 0.2 0"/>
<feBlend mode="normal" in2="BackgroundImageFix" result="effect1_dropShadow_618_17128"/>
<feBlend mode="normal" in="SourceGraphic" in2="effect1_dropShadow_618_17128" result="shape"/>
</filter>
</defs>
</svg>
